# xmcd
#
# Track frame offsets:
# 182
# 19412
# 37345
# 57047
# 76945
# 92275
# 109187
# 123987
# 146085
# 160357
# 179425
# 196642
#
# Disc length: 2828 seconds
#
# Revision: 2
# Processed by: cddbd v1.4PL0 Copyright (c) Steve Scherf et al.
# Submitted via: Axialis_AX_CDPlayer 2.6
#
DISCID=9c0b0a0c
DTITLE=Lace - Lace
DYEAR=1999
DGENRE=Country
TTITLE0=I Want A Man
TTITLE1=Life Is Good
TTITLE2=Angel
TTITLE3=I Cry Real Tears
TTITLE4=Kiss 'Em All
TTITLE5=You Could've Had Me
TTITLE6=Texas Ranger
TTITLE7=He Can't Talk Without His Hands
TTITLE8=So Gone
TTITLE9=Swept Away
TTITLE10=True Love (Never Goes Out Of Style)
TTITLE11=If Not For Loving You
EXTD=YEAR: 1999 ID3G:   2
EXTT0=
EXTT1=
EXTT2=
EXTT3=
EXTT4=
EXTT5=
EXTT6=
EXTT7=
EXTT8=
EXTT9=
EXTT10=
EXTT11=
PLAYORDER=
